<mxfile host="65bd71144e">
    <diagram id="EJxIcCWM_QPv3izVWrai" name="Page-1">
        <mxGraphModel dx="861" dy="634" grid="1" gridSize="10" guides="1" tooltips="1" connect="1" arrows="1" fold="1" page="1" pageScale="1" pageWidth="827" pageHeight="1169" math="0" shadow="0">
            <root>
                <mxCell id="0"/>
                <mxCell id="1" parent="0"/>
                <mxCell id="cfK_o1adp7IO0IBLAxTq-1" value="C" style="ellipse;whiteSpace=wrap;html=1;aspect=fixed;" parent="1" vertex="1">
                    <mxGeometry x="105" y="40" width="50" height="50" as="geometry"/>
                </mxCell>
                <mxCell id="cfK_o1adp7IO0IBLAxTq-2" value="&quot;Do you want to Login?&quot;&lt;br&gt;Y / N" style="shape=parallelogram;perimeter=parallelogramPerimeter;whiteSpace=wrap;html=1;fixedSize=1;" parent="1" vertex="1">
                    <mxGeometry x="20" y="130" width="220" height="70" as="geometry"/>
                </mxCell>
                <mxCell id="cfK_o1adp7IO0IBLAxTq-4" style="edgeStyle=orthogonalEdgeStyle;rounded=0;orthogonalLoop=1;jettySize=auto;html=1;entryX=0.5;entryY=0;entryDx=0;entryDy=0;" parent="1" edge="1">
                    <mxGeometry relative="1" as="geometry">
                        <mxPoint x="129.57999999999998" y="130" as="targetPoint"/>
                        <mxPoint x="129.57999999999998" y="91" as="sourcePoint"/>
                    </mxGeometry>
                </mxCell>
                <mxCell id="cfK_o1adp7IO0IBLAxTq-7" style="edgeStyle=orthogonalEdgeStyle;rounded=0;orthogonalLoop=1;jettySize=auto;html=1;" parent="1" edge="1">
                    <mxGeometry relative="1" as="geometry">
                        <mxPoint x="129.57999999999998" y="271" as="targetPoint"/>
                        <mxPoint x="129.57999999999998" y="200" as="sourcePoint"/>
                    </mxGeometry>
                </mxCell>
                <mxCell id="cfK_o1adp7IO0IBLAxTq-11" value="IF NO" style="text;html=1;align=center;verticalAlign=middle;resizable=0;points=[];autosize=1;strokeColor=none;fillColor=none;" parent="1" vertex="1">
                    <mxGeometry x="240" y="150" width="50" height="20" as="geometry"/>
                </mxCell>
                <mxCell id="cfK_o1adp7IO0IBLAxTq-12" value="IF YES" style="text;html=1;align=center;verticalAlign=middle;resizable=0;points=[];autosize=1;strokeColor=none;fillColor=none;" parent="1" vertex="1">
                    <mxGeometry x="75" y="220" width="50" height="20" as="geometry"/>
                </mxCell>
                <mxCell id="cfK_o1adp7IO0IBLAxTq-16" value="" style="endArrow=classic;html=1;rounded=0;exitX=0.953;exitY=0.571;exitDx=0;exitDy=0;exitPerimeter=0;" parent="1" source="cfK_o1adp7IO0IBLAxTq-2" edge="1">
                    <mxGeometry width="50" height="50" relative="1" as="geometry">
                        <mxPoint x="235" y="170" as="sourcePoint"/>
                        <mxPoint x="295" y="170" as="targetPoint"/>
                    </mxGeometry>
                </mxCell>
                <mxCell id="cfK_o1adp7IO0IBLAxTq-17" value="A" style="ellipse;whiteSpace=wrap;html=1;aspect=fixed;" parent="1" vertex="1">
                    <mxGeometry x="295" y="150" width="50" height="50" as="geometry"/>
                </mxCell>
                <mxCell id="cfK_o1adp7IO0IBLAxTq-18" value="Input Teacher ID" style="shape=parallelogram;perimeter=parallelogramPerimeter;whiteSpace=wrap;html=1;fixedSize=1;" parent="1" vertex="1">
                    <mxGeometry x="20" y="270" width="220" height="70" as="geometry"/>
                </mxCell>
                <mxCell id="cfK_o1adp7IO0IBLAxTq-19" style="edgeStyle=orthogonalEdgeStyle;rounded=0;orthogonalLoop=1;jettySize=auto;html=1;exitX=0.949;exitY=0.636;exitDx=0;exitDy=0;exitPerimeter=0;" parent="1" edge="1">
                    <mxGeometry relative="1" as="geometry">
                        <mxPoint x="229.99999999999997" y="309.52" as="sourcePoint"/>
                        <mxPoint x="326.22" y="310" as="targetPoint"/>
                        <Array as="points">
                            <mxPoint x="289.22" y="310"/>
                            <mxPoint x="336.22" y="310"/>
                        </Array>
                    </mxGeometry>
                </mxCell>
                <mxCell id="cfK_o1adp7IO0IBLAxTq-20" value="Output: Wrong password" style="shape=parallelogram;perimeter=parallelogramPerimeter;whiteSpace=wrap;html=1;fixedSize=1;" parent="1" vertex="1">
                    <mxGeometry x="320" y="265" width="220" height="70" as="geometry"/>
                </mxCell>
                <mxCell id="cfK_o1adp7IO0IBLAxTq-21" value="IF NO" style="text;html=1;align=center;verticalAlign=middle;resizable=0;points=[];autosize=1;strokeColor=none;fillColor=none;" parent="1" vertex="1">
                    <mxGeometry x="241.22" y="290" width="50" height="20" as="geometry"/>
                </mxCell>
                <mxCell id="cfK_o1adp7IO0IBLAxTq-23" style="edgeStyle=orthogonalEdgeStyle;rounded=0;orthogonalLoop=1;jettySize=auto;html=1;endArrow=none;endFill=0;" parent="1" source="cfK_o1adp7IO0IBLAxTq-20" edge="1">
                    <mxGeometry relative="1" as="geometry">
                        <mxPoint x="430" y="60" as="targetPoint"/>
                        <mxPoint x="435" y="270" as="sourcePoint"/>
                        <Array as="points">
                            <mxPoint x="430" y="60"/>
                        </Array>
                    </mxGeometry>
                </mxCell>
                <mxCell id="cfK_o1adp7IO0IBLAxTq-24" value="" style="endArrow=classic;html=1;rounded=0;entryX=1;entryY=0.5;entryDx=0;entryDy=0;" parent="1" edge="1">
                    <mxGeometry width="50" height="50" relative="1" as="geometry">
                        <mxPoint x="430" y="65" as="sourcePoint"/>
                        <mxPoint x="154.99999999999943" y="65.18" as="targetPoint"/>
                    </mxGeometry>
                </mxCell>
                <mxCell id="cfK_o1adp7IO0IBLAxTq-29" style="edgeStyle=orthogonalEdgeStyle;rounded=0;orthogonalLoop=1;jettySize=auto;html=1;" parent="1" source="cfK_o1adp7IO0IBLAxTq-25" edge="1">
                    <mxGeometry relative="1" as="geometry">
                        <mxPoint x="130" y="520" as="targetPoint"/>
                    </mxGeometry>
                </mxCell>
                <mxCell id="cfK_o1adp7IO0IBLAxTq-25" value="Teacher ID&amp;nbsp;&lt;br&gt;Number" style="rhombus;whiteSpace=wrap;html=1;" parent="1" vertex="1">
                    <mxGeometry x="77.5" y="380" width="105" height="100" as="geometry"/>
                </mxCell>
                <mxCell id="cfK_o1adp7IO0IBLAxTq-27" style="edgeStyle=orthogonalEdgeStyle;rounded=0;orthogonalLoop=1;jettySize=auto;html=1;" parent="1" edge="1">
                    <mxGeometry relative="1" as="geometry">
                        <mxPoint x="130" y="380" as="targetPoint"/>
                        <mxPoint x="129.70999999999992" y="340" as="sourcePoint"/>
                        <Array as="points">
                            <mxPoint x="130" y="360"/>
                            <mxPoint x="130" y="360"/>
                        </Array>
                    </mxGeometry>
                </mxCell>
                <mxCell id="cfK_o1adp7IO0IBLAxTq-38" style="edgeStyle=orthogonalEdgeStyle;rounded=0;orthogonalLoop=1;jettySize=auto;html=1;entryX=0.5;entryY=0.025;entryDx=0;entryDy=0;entryPerimeter=0;" parent="1" source="cfK_o1adp7IO0IBLAxTq-28" target="cfK_o1adp7IO0IBLAxTq-31" edge="1">
                    <mxGeometry relative="1" as="geometry">
                        <mxPoint x="130" y="610" as="targetPoint"/>
                    </mxGeometry>
                </mxCell>
                <mxCell id="cfK_o1adp7IO0IBLAxTq-28" value="Choose Option" style="shape=parallelogram;perimeter=parallelogramPerimeter;whiteSpace=wrap;html=1;fixedSize=1;" parent="1" vertex="1">
                    <mxGeometry x="20" y="520" width="220" height="70" as="geometry"/>
                </mxCell>
                <mxCell id="cfK_o1adp7IO0IBLAxTq-36" style="edgeStyle=orthogonalEdgeStyle;rounded=0;orthogonalLoop=1;jettySize=auto;html=1;" parent="1" source="cfK_o1adp7IO0IBLAxTq-30" edge="1">
                    <mxGeometry relative="1" as="geometry">
                        <mxPoint x="460" y="667.5" as="targetPoint"/>
                    </mxGeometry>
                </mxCell>
                <mxCell id="cfK_o1adp7IO0IBLAxTq-30" value="Show student list" style="shape=parallelogram;perimeter=parallelogramPerimeter;whiteSpace=wrap;html=1;fixedSize=1;" parent="1" vertex="1">
                    <mxGeometry x="215" y="635" width="210" height="65" as="geometry"/>
                </mxCell>
                <mxCell id="cfK_o1adp7IO0IBLAxTq-35" style="edgeStyle=orthogonalEdgeStyle;rounded=0;orthogonalLoop=1;jettySize=auto;html=1;entryX=0;entryY=0.5;entryDx=0;entryDy=0;" parent="1" source="cfK_o1adp7IO0IBLAxTq-31" target="cfK_o1adp7IO0IBLAxTq-30" edge="1">
                    <mxGeometry relative="1" as="geometry"/>
                </mxCell>
                <mxCell id="cfK_o1adp7IO0IBLAxTq-31" value="Select Student" style="rhombus;whiteSpace=wrap;html=1;" parent="1" vertex="1">
                    <mxGeometry x="77.5" y="617.5" width="105" height="100" as="geometry"/>
                </mxCell>
                <mxCell id="cfK_o1adp7IO0IBLAxTq-37" style="edgeStyle=orthogonalEdgeStyle;rounded=0;orthogonalLoop=1;jettySize=auto;html=1;" parent="1" source="cfK_o1adp7IO0IBLAxTq-32" target="cfK_o1adp7IO0IBLAxTq-34" edge="1">
                    <mxGeometry relative="1" as="geometry"/>
                </mxCell>
                <mxCell id="cfK_o1adp7IO0IBLAxTq-46" style="edgeStyle=orthogonalEdgeStyle;rounded=0;orthogonalLoop=1;jettySize=auto;html=1;entryX=0.5;entryY=0;entryDx=0;entryDy=0;endArrow=none;endFill=0;" parent="1" source="cfK_o1adp7IO0IBLAxTq-32" target="cfK_o1adp7IO0IBLAxTq-43" edge="1">
                    <mxGeometry relative="1" as="geometry"/>
                </mxCell>
                <mxCell id="cfK_o1adp7IO0IBLAxTq-32" value="Add Grades" style="rhombus;whiteSpace=wrap;html=1;" parent="1" vertex="1">
                    <mxGeometry x="71.25" y="960" width="105" height="100" as="geometry"/>
                </mxCell>
                <mxCell id="cfK_o1adp7IO0IBLAxTq-34" value="Choose Semester" style="shape=parallelogram;perimeter=parallelogramPerimeter;whiteSpace=wrap;html=1;fixedSize=1;" parent="1" vertex="1">
                    <mxGeometry x="208.75" y="977.5" width="210" height="65" as="geometry"/>
                </mxCell>
                <mxCell id="cfK_o1adp7IO0IBLAxTq-40" value="K" style="ellipse;whiteSpace=wrap;html=1;aspect=fixed;" parent="1" vertex="1">
                    <mxGeometry x="460" y="642.5" width="50" height="50" as="geometry"/>
                </mxCell>
                <mxCell id="cfK_o1adp7IO0IBLAxTq-42" style="edgeStyle=orthogonalEdgeStyle;rounded=0;orthogonalLoop=1;jettySize=auto;html=1;entryX=0.5;entryY=0;entryDx=0;entryDy=0;" parent="1" source="cfK_o1adp7IO0IBLAxTq-41" target="cfK_o1adp7IO0IBLAxTq-32" edge="1">
                    <mxGeometry relative="1" as="geometry"/>
                </mxCell>
                <mxCell id="cfK_o1adp7IO0IBLAxTq-41" value="K" style="ellipse;whiteSpace=wrap;html=1;aspect=fixed;" parent="1" vertex="1">
                    <mxGeometry x="98.75" y="890" width="50" height="50" as="geometry"/>
                </mxCell>
                <mxCell id="cfK_o1adp7IO0IBLAxTq-44" style="edgeStyle=orthogonalEdgeStyle;rounded=0;orthogonalLoop=1;jettySize=auto;html=1;" parent="1" source="cfK_o1adp7IO0IBLAxTq-43" edge="1">
                    <mxGeometry relative="1" as="geometry">
                        <mxPoint x="213.75" y="1140" as="targetPoint"/>
                    </mxGeometry>
                </mxCell>
                <mxCell id="cfK_o1adp7IO0IBLAxTq-43" value="Back" style="rhombus;whiteSpace=wrap;html=1;" parent="1" vertex="1">
                    <mxGeometry x="71.25" y="1090" width="105" height="100" as="geometry"/>
                </mxCell>
                <mxCell id="cfK_o1adp7IO0IBLAxTq-45" value="C" style="ellipse;whiteSpace=wrap;html=1;aspect=fixed;" parent="1" vertex="1">
                    <mxGeometry x="213.75" y="1115" width="50" height="50" as="geometry"/>
                </mxCell>
                <mxCell id="cfK_o1adp7IO0IBLAxTq-47" style="edgeStyle=orthogonalEdgeStyle;rounded=0;orthogonalLoop=1;jettySize=auto;html=1;endArrow=classic;endFill=1;entryX=0;entryY=0.5;entryDx=0;entryDy=0;" parent="1" edge="1">
                    <mxGeometry relative="1" as="geometry">
                        <mxPoint x="447.7499999999998" y="1010" as="targetPoint"/>
                        <mxPoint x="408.75" y="1010.0000000000002" as="sourcePoint"/>
                    </mxGeometry>
                </mxCell>
                <mxCell id="cfK_o1adp7IO0IBLAxTq-49" value="1st Semester" style="rounded=0;whiteSpace=wrap;html=1;" parent="1" vertex="1">
                    <mxGeometry x="288.75" y="1075" width="120" height="20" as="geometry"/>
                </mxCell>
                <mxCell id="cfK_o1adp7IO0IBLAxTq-50" value="" style="endArrow=classic;html=1;rounded=0;" parent="1" edge="1">
                    <mxGeometry width="50" height="50" relative="1" as="geometry">
                        <mxPoint x="348.40999999999997" y="1042.5" as="sourcePoint"/>
                        <mxPoint x="348.40999999999997" y="1072.5" as="targetPoint"/>
                    </mxGeometry>
                </mxCell>
                <mxCell id="cfK_o1adp7IO0IBLAxTq-51" value="" style="endArrow=none;html=1;rounded=0;" parent="1" edge="1">
                    <mxGeometry width="50" height="50" relative="1" as="geometry">
                        <mxPoint x="348.46000000000004" y="1095" as="sourcePoint"/>
                        <mxPoint x="348.46000000000004" y="1105" as="targetPoint"/>
                    </mxGeometry>
                </mxCell>
                <mxCell id="cfK_o1adp7IO0IBLAxTq-52" value="&lt;font style=&quot;font-size: 8px&quot;&gt;Fundamentals of Gaming&lt;/font&gt;" style="rounded=0;whiteSpace=wrap;html=1;" parent="1" vertex="1">
                    <mxGeometry x="288.75" y="1105" width="120" height="20" as="geometry"/>
                </mxCell>
                <mxCell id="cfK_o1adp7IO0IBLAxTq-53" value="" style="endArrow=none;html=1;rounded=0;" parent="1" edge="1">
                    <mxGeometry width="50" height="50" relative="1" as="geometry">
                        <mxPoint x="348.6500000000001" y="1125" as="sourcePoint"/>
                        <mxPoint x="348.6500000000001" y="1135" as="targetPoint"/>
                    </mxGeometry>
                </mxCell>
                <mxCell id="cfK_o1adp7IO0IBLAxTq-54" value="" style="endArrow=none;html=1;rounded=0;" parent="1" edge="1">
                    <mxGeometry width="50" height="50" relative="1" as="geometry">
                        <mxPoint x="348.6500000000001" y="1155" as="sourcePoint"/>
                        <mxPoint x="348.6500000000001" y="1165" as="targetPoint"/>
                    </mxGeometry>
                </mxCell>
                <mxCell id="cfK_o1adp7IO0IBLAxTq-55" value="&lt;font style=&quot;font-size: 8px&quot;&gt;Mathematics in Modern World&lt;/font&gt;" style="rounded=0;whiteSpace=wrap;html=1;" parent="1" vertex="1">
                    <mxGeometry x="288.75" y="1195" width="120" height="20" as="geometry"/>
                </mxCell>
                <mxCell id="cfK_o1adp7IO0IBLAxTq-56" value="&lt;font style=&quot;font-size: 8px&quot;&gt;Introduction to Computing&lt;/font&gt;" style="rounded=0;whiteSpace=wrap;html=1;" parent="1" vertex="1">
                    <mxGeometry x="288.75" y="1135" width="120" height="20" as="geometry"/>
                </mxCell>
                <mxCell id="cfK_o1adp7IO0IBLAxTq-57" value="&lt;font style=&quot;font-size: 8px&quot;&gt;Introduction to Programming&lt;/font&gt;" style="rounded=0;whiteSpace=wrap;html=1;" parent="1" vertex="1">
                    <mxGeometry x="288.75" y="1165" width="120" height="20" as="geometry"/>
                </mxCell>
                <mxCell id="cfK_o1adp7IO0IBLAxTq-58" value="" style="endArrow=none;html=1;rounded=0;" parent="1" edge="1">
                    <mxGeometry width="50" height="50" relative="1" as="geometry">
                        <mxPoint x="348.5799999999999" y="1185" as="sourcePoint"/>
                        <mxPoint x="348.5799999999999" y="1195" as="targetPoint"/>
                    </mxGeometry>
                </mxCell>
                <mxCell id="cfK_o1adp7IO0IBLAxTq-59" value="" style="endArrow=none;html=1;rounded=0;" parent="1" edge="1">
                    <mxGeometry width="50" height="50" relative="1" as="geometry">
                        <mxPoint x="348.5799999999999" y="1215" as="sourcePoint"/>
                        <mxPoint x="348.5799999999999" y="1225" as="targetPoint"/>
                    </mxGeometry>
                </mxCell>
                <mxCell id="cfK_o1adp7IO0IBLAxTq-60" value="&lt;font style=&quot;font-size: 8px&quot;&gt;Physical Education I&lt;/font&gt;" style="rounded=0;whiteSpace=wrap;html=1;" parent="1" vertex="1">
                    <mxGeometry x="288.75" y="1225" width="120" height="20" as="geometry"/>
                </mxCell>
                <mxCell id="cfK_o1adp7IO0IBLAxTq-61" value="" style="endArrow=none;html=1;rounded=0;" parent="1" edge="1">
                    <mxGeometry width="50" height="50" relative="1" as="geometry">
                        <mxPoint x="507.4599999999998" y="1020" as="sourcePoint"/>
                        <mxPoint x="507.4599999999998" y="1030" as="targetPoint"/>
                    </mxGeometry>
                </mxCell>
                <mxCell id="cfK_o1adp7IO0IBLAxTq-62" value="" style="endArrow=none;html=1;rounded=0;" parent="1" edge="1">
                    <mxGeometry width="50" height="50" relative="1" as="geometry">
                        <mxPoint x="507.64999999999986" y="1050" as="sourcePoint"/>
                        <mxPoint x="507.64999999999986" y="1060" as="targetPoint"/>
                    </mxGeometry>
                </mxCell>
                <mxCell id="cfK_o1adp7IO0IBLAxTq-63" value="" style="endArrow=none;html=1;rounded=0;" parent="1" edge="1">
                    <mxGeometry width="50" height="50" relative="1" as="geometry">
                        <mxPoint x="507.64999999999986" y="1080" as="sourcePoint"/>
                        <mxPoint x="507.64999999999986" y="1090" as="targetPoint"/>
                    </mxGeometry>
                </mxCell>
                <mxCell id="cfK_o1adp7IO0IBLAxTq-64" value="" style="endArrow=none;html=1;rounded=0;" parent="1" edge="1">
                    <mxGeometry width="50" height="50" relative="1" as="geometry">
                        <mxPoint x="507.58000000000015" y="1110" as="sourcePoint"/>
                        <mxPoint x="507.58000000000015" y="1120" as="targetPoint"/>
                    </mxGeometry>
                </mxCell>
                <mxCell id="cfK_o1adp7IO0IBLAxTq-65" value="" style="endArrow=none;html=1;rounded=0;" parent="1" edge="1">
                    <mxGeometry width="50" height="50" relative="1" as="geometry">
                        <mxPoint x="507.58000000000015" y="1140" as="sourcePoint"/>
                        <mxPoint x="507.58000000000015" y="1150" as="targetPoint"/>
                    </mxGeometry>
                </mxCell>
                <mxCell id="cfK_o1adp7IO0IBLAxTq-66" value="" style="endArrow=classic;html=1;rounded=0;fontSize=8;entryX=0.011;entryY=0.463;entryDx=0;entryDy=0;entryPerimeter=0;" parent="1" edge="1">
                    <mxGeometry width="50" height="50" relative="1" as="geometry">
                        <mxPoint x="348.2" y="1270" as="sourcePoint"/>
                        <mxPoint x="483.7499999999995" y="1270.1499999999999" as="targetPoint"/>
                    </mxGeometry>
                </mxCell>
                <mxCell id="cfK_o1adp7IO0IBLAxTq-67" value="" style="endArrow=classic;html=1;rounded=0;fontSize=8;entryX=0.5;entryY=0;entryDx=0;entryDy=0;" parent="1" edge="1">
                    <mxGeometry width="50" height="50" relative="1" as="geometry">
                        <mxPoint x="507.7499999999998" y="1170" as="sourcePoint"/>
                        <mxPoint x="508.75" y="1245.0000000000002" as="targetPoint"/>
                    </mxGeometry>
                </mxCell>
                <mxCell id="cfK_o1adp7IO0IBLAxTq-68" value="K" style="ellipse;whiteSpace=wrap;html=1;aspect=fixed;" parent="1" vertex="1">
                    <mxGeometry x="483.75" y="1245" width="50" height="50" as="geometry"/>
                </mxCell>
                <mxCell id="cfK_o1adp7IO0IBLAxTq-70" value="2nd Semester" style="rounded=0;whiteSpace=wrap;html=1;" parent="1" vertex="1">
                    <mxGeometry x="448.75" y="1000" width="120" height="20" as="geometry"/>
                </mxCell>
                <mxCell id="cfK_o1adp7IO0IBLAxTq-71" value="" style="endArrow=none;html=1;rounded=0;" parent="1" edge="1">
                    <mxGeometry width="50" height="50" relative="1" as="geometry">
                        <mxPoint x="507.4599999999998" y="1020" as="sourcePoint"/>
                        <mxPoint x="507.4599999999998" y="1030" as="targetPoint"/>
                    </mxGeometry>
                </mxCell>
                <mxCell id="cfK_o1adp7IO0IBLAxTq-72" value="&lt;font style=&quot;font-size: 8px&quot;&gt;Fundamentals of Gaming II&lt;/font&gt;" style="rounded=0;whiteSpace=wrap;html=1;" parent="1" vertex="1">
                    <mxGeometry x="448.75" y="1030" width="120" height="20" as="geometry"/>
                </mxCell>
                <mxCell id="cfK_o1adp7IO0IBLAxTq-73" value="" style="endArrow=none;html=1;rounded=0;" parent="1" edge="1">
                    <mxGeometry width="50" height="50" relative="1" as="geometry">
                        <mxPoint x="507.64999999999986" y="1050" as="sourcePoint"/>
                        <mxPoint x="507.64999999999986" y="1060" as="targetPoint"/>
                    </mxGeometry>
                </mxCell>
                <mxCell id="cfK_o1adp7IO0IBLAxTq-74" value="" style="endArrow=none;html=1;rounded=0;" parent="1" edge="1">
                    <mxGeometry width="50" height="50" relative="1" as="geometry">
                        <mxPoint x="507.64999999999986" y="1080" as="sourcePoint"/>
                        <mxPoint x="507.64999999999986" y="1090" as="targetPoint"/>
                    </mxGeometry>
                </mxCell>
                <mxCell id="cfK_o1adp7IO0IBLAxTq-75" value="&lt;font style=&quot;font-size: 8px&quot;&gt;Introduction to Programming II&lt;/font&gt;" style="rounded=0;whiteSpace=wrap;html=1;" parent="1" vertex="1">
                    <mxGeometry x="448.75" y="1120" width="120" height="20" as="geometry"/>
                </mxCell>
                <mxCell id="cfK_o1adp7IO0IBLAxTq-76" value="&lt;font style=&quot;font-size: 8px&quot;&gt;Advanced Interface Design&lt;/font&gt;" style="rounded=0;whiteSpace=wrap;html=1;" parent="1" vertex="1">
                    <mxGeometry x="448.75" y="1060" width="120" height="20" as="geometry"/>
                </mxCell>
                <mxCell id="cfK_o1adp7IO0IBLAxTq-77" value="&lt;font style=&quot;font-size: 8px&quot;&gt;Introduction to Computing II&lt;/font&gt;" style="rounded=0;whiteSpace=wrap;html=1;" parent="1" vertex="1">
                    <mxGeometry x="448.75" y="1090" width="120" height="20" as="geometry"/>
                </mxCell>
                <mxCell id="cfK_o1adp7IO0IBLAxTq-78" value="" style="endArrow=none;html=1;rounded=0;" parent="1" edge="1">
                    <mxGeometry width="50" height="50" relative="1" as="geometry">
                        <mxPoint x="507.58000000000015" y="1110" as="sourcePoint"/>
                        <mxPoint x="507.58000000000015" y="1120" as="targetPoint"/>
                    </mxGeometry>
                </mxCell>
                <mxCell id="cfK_o1adp7IO0IBLAxTq-79" value="" style="endArrow=none;html=1;rounded=0;" parent="1" edge="1">
                    <mxGeometry width="50" height="50" relative="1" as="geometry">
                        <mxPoint x="507.58000000000015" y="1140" as="sourcePoint"/>
                        <mxPoint x="507.58000000000015" y="1150" as="targetPoint"/>
                    </mxGeometry>
                </mxCell>
                <mxCell id="cfK_o1adp7IO0IBLAxTq-80" value="&lt;font style=&quot;font-size: 8px&quot;&gt;Physical Education II&lt;/font&gt;" style="rounded=0;whiteSpace=wrap;html=1;" parent="1" vertex="1">
                    <mxGeometry x="448.75" y="1150" width="120" height="20" as="geometry"/>
                </mxCell>
                <mxCell id="cfK_o1adp7IO0IBLAxTq-83" value="" style="endArrow=none;html=1;rounded=0;" parent="1" edge="1">
                    <mxGeometry width="50" height="50" relative="1" as="geometry">
                        <mxPoint x="348.51" y="1245" as="sourcePoint"/>
                        <mxPoint x="348.51" y="1270" as="targetPoint"/>
                    </mxGeometry>
                </mxCell>
                <mxCell id="cfK_o1adp7IO0IBLAxTq-86" value="" style="edgeStyle=orthogonalEdgeStyle;rounded=0;orthogonalLoop=1;jettySize=auto;html=1;endArrow=none;endFill=0;" parent="1" source="cfK_o1adp7IO0IBLAxTq-84" target="cfK_o1adp7IO0IBLAxTq-31" edge="1">
                    <mxGeometry relative="1" as="geometry"/>
                </mxCell>
                <mxCell id="cfK_o1adp7IO0IBLAxTq-84" value="Back" style="rhombus;whiteSpace=wrap;html=1;" parent="1" vertex="1">
                    <mxGeometry x="77.5" y="750" width="105" height="100" as="geometry"/>
                </mxCell>
                <mxCell id="cfK_o1adp7IO0IBLAxTq-85" style="edgeStyle=orthogonalEdgeStyle;rounded=0;orthogonalLoop=1;jettySize=auto;html=1;entryX=0.5;entryY=0.025;entryDx=0;entryDy=0;entryPerimeter=0;" parent="1" edge="1">
                    <mxGeometry relative="1" as="geometry">
                        <mxPoint x="129.71" y="747.5" as="targetPoint"/>
                        <mxPoint x="129.73857142857136" y="717.5" as="sourcePoint"/>
                    </mxGeometry>
                </mxCell>
                <mxCell id="cfK_o1adp7IO0IBLAxTq-88" value="&lt;font&gt;&lt;font&gt;&lt;span style=&quot;font-size: 8px&quot;&gt;Each subject per semester has:&lt;/span&gt;&lt;br&gt;&lt;br&gt;&lt;font style=&quot;font-size: 9px&quot;&gt;4-Written Works - 20%&lt;br&gt;2 - Performance Task - 30%&lt;br&gt;Midterms 25%&lt;br&gt;Finals 25%&amp;nbsp;&lt;br&gt;&lt;/font&gt;&lt;br&gt;&lt;/font&gt;Total of 100%&lt;br&gt;&lt;/font&gt;" style="shape=callout;whiteSpace=wrap;html=1;perimeter=calloutPerimeter;position2=0.39;base=10;" parent="1" vertex="1">
                    <mxGeometry x="376.25" y="820" width="133.75" height="157.5" as="geometry"/>
                </mxCell>
            </root>
        </mxGraphModel>
    </diagram>
</mxfile>